# xmcd
#
# Track frame offsets:
#	150
#	16942
#	34952
#	54727
#	73337
#	91680
#	110305
#	129797
#	149197
#	168332
#
# Disc length: 2538 seconds
#
# Revision: 0
# Processed by: cddbd v1.4b42PL1 Copyright (c) Steve Scherf et al.
# Submitted via: audiograbber 1.80
#
DISCID=8909e80a
DTITLE=Venetians - Calling In The Lions
DYEAR=1900
DGENRE=
TTITLE0=So Much For Love
TTITLE1=Set Loose
TTITLE2=One From The Hearts
TTITLE3=If Somebody Loves You
TTITLE4=Cario
TTITLE5=Stay
TTITLE6=Imspiration
TTITLE7=Let It All Go
TTITLE8=Believe in Me
TTITLE9=Do It Together
EXTD=
EXTT0=
EXTT1=
EXTT2=
EXTT3=
EXTT4=
EXTT5=
EXTT6=
EXTT7=
EXTT8=
EXTT9=
PLAYORDER=
